<svg width="71" height="73" viewBox="0 0 71 73" fill="none" xmlns="http://www.w3.org/2000/svg">
<g id="games_btn_start_disable">
<g id="Group 18" filter="url(#filter0_d_650_7951)">
<g id="Group 17">
<mask id="mask0_650_7951" style="mask-type:alpha" maskUnits="userSpaceOnUse" x="30" y="4" width="37" height="59">
<path id="Union" d="M66.092 33.5907C66.092 17.5744 53.1083 4.5907 37.092 4.5907V4.60284L30.8879 11.002C30.2154 11.6956 30.1348 12.7706 30.6963 13.5567L35.9086 20.8539C36.5224 21.7132 36.3624 22.9017 35.5431 23.568L31.4765 26.8754C30.5461 27.6321 30.4863 29.032 31.3488 29.8654L35.6751 34.0451C36.424 34.7686 36.4925 35.9457 35.8325 36.7511L30.8003 42.8922C30.1808 43.6481 30.1984 44.7411 30.842 45.4767L36.2131 51.6163C36.6981 52.1706 36.8391 52.9465 36.5803 53.636L35.068 57.6647C34.8556 58.2308 34.9105 58.8625 35.2176 59.3833L37.092 62.5629V62.5907C37.0975 62.5907 37.103 62.5907 37.1084 62.5907L37.1098 62.593L37.1118 62.5907C53.119 62.58 66.092 49.6004 66.092 33.5907Z" fill="white"/>
</mask>
<g mask="url(#mask0_650_7951)">
<g id="Group 12">
<g id="Group 14">
<rect id="Rectangle 13" x="12.092" y="10.2889" width="50" height="50" rx="25" fill="#6B6B6B"/>
<rect id="Rectangle 12" x="12.092" y="8.89709" width="50" height="50" rx="25" fill="url(#paint0_linear_650_7951)"/>
<g id="Group 13">
<mask id="mask1_650_7951" style="mask-type:alpha" maskUnits="userSpaceOnUse" x="12" y="8" width="51" height="51">
<rect id="Rectangle 14" x="12.092" y="8.89709" width="50" height="50" rx="25" fill="url(#paint1_linear_650_7951)"/>
</mask>
<g mask="url(#mask1_650_7951)">
<path id="Vector 3" opacity="0.4" d="M18.6916 22.9089C17.3007 25.2879 13.6121 25.5014 11.9416 25.3108C11.2939 24.5102 9.95754 22.7488 9.7939 22.1083C9.63026 21.4678 10.8166 19.4014 11.4302 18.4483C11.8052 16.5039 12.5552 12.4321 12.5552 11.7001C12.5552 10.7851 18.6916 6.32447 18.6916 5.18071C18.6916 4.2657 28.3052 4.18945 33.112 4.2657L46.9188 6.32447C52.4756 11.3189 63.4719 22.2913 58.6447 26.2258C52.6106 31.144 50.8693 7.57997 25.3882 16.0519C21.7173 17.2724 20.4302 19.9352 18.6916 22.9089Z" fill="white"/>
<path id="Vector 4" d="M21.0051 46.0174C19.6142 43.6384 15.9255 43.4249 14.2551 43.6155C13.6074 44.4162 12.271 46.1775 12.1074 46.818C11.9437 47.4585 13.1301 49.5249 13.7437 50.4781C14.1187 52.4224 14.8687 56.4942 14.8687 57.2262C14.8687 58.1412 21.0051 62.6019 21.0051 63.7456C21.0051 64.6606 30.6187 64.7369 35.4255 64.6606L49.2323 62.6019C54.7891 57.6075 65.7854 46.635 60.9582 42.7005C54.9241 37.7824 53.1828 61.3464 27.7017 52.8744C24.0308 51.6539 22.7437 48.9912 21.0051 46.0174Z" fill="#939393"/>
</g>
</g>
<g id="Polygon 2" filter="url(#filter1_ii_650_7951)">
<path d="M45.592 36.4952C47.592 35.3405 47.592 32.4537 45.592 31.299L35.092 25.2368C33.092 24.0821 30.592 25.5255 30.592 27.8349V39.9593C30.592 42.2687 33.092 43.712 35.092 42.5573L45.592 36.4952Z" fill="#797C76"/>
</g>
<ellipse id="Ellipse 2" cx="28.0288" cy="15.8175" rx="3.3937" ry="1.53472" transform="rotate(-14.5 28.0288 15.8175)" fill="white"/>
<ellipse id="Ellipse 4" cx="43.251" cy="53.3087" rx="3.3937" ry="1.53472" transform="rotate(-15.5 43.251 53.3087)" fill="white"/>
<ellipse id="Ellipse 5" cx="51.1418" cy="50.1306" rx="1.9408" ry="1" transform="rotate(-34 51.1418 50.1306)" fill="white"/>
</g>
<g id="Rectangle 12_2" filter="url(#filter2_ii_650_7951)">
<rect x="8.09204" y="4.59302" width="58" height="58" rx="29" fill="white" fill-opacity="0.04"/>
</g>
</g>
</g>
</g>
<g id="Group 16" filter="url(#filter3_d_650_7951)">
<mask id="mask2_650_7951" style="mask-type:alpha" maskUnits="userSpaceOnUse" x="6" y="4" width="37" height="59">
<path id="Union_2" d="M6.98277 33.4369C7.12254 17.4213 20.2191 4.55135 36.2347 4.69112L36.2346 4.70327L42.3827 11.1564C43.0491 11.8558 43.1203 12.9314 42.552 13.7126L37.2762 20.964C36.6549 21.818 36.8046 23.0078 37.618 23.6812L41.6555 27.0239C42.5794 27.7888 42.627 29.1891 41.7572 30.0149L37.3945 34.1567C36.6394 34.8737 36.5607 36.0501 37.2136 36.8613L42.192 43.046C42.8049 43.8074 42.7777 44.9001 42.1278 45.6301L36.7032 51.7226C36.2135 52.2726 36.0657 53.0473 36.3185 53.739L37.7955 57.7808C38.003 58.3486 37.9425 58.9799 37.631 59.498L35.7288 62.6611L35.7286 62.6889C35.7231 62.6889 35.7177 62.6888 35.7122 62.6888L35.7108 62.6911L35.7089 62.6887C19.7024 62.5384 6.84306 49.446 6.98277 33.4369Z" fill="white"/>
</mask>
<g mask="url(#mask2_650_7951)">
<g id="Group 12_2">
<g id="Group 14_2">
<rect id="Rectangle 13_2" x="11.186" y="10.171" width="50" height="50" rx="25" transform="rotate(0.5 11.186 10.171)" fill="#6B6B6B"/>
<rect id="Rectangle 12_3" x="11.1982" y="8.77917" width="50" height="50" rx="25" transform="rotate(0.5 11.1982 8.77917)" fill="url(#paint2_linear_650_7951)"/>
<g id="Group 13_2">
<mask id="mask3_650_7951" style="mask-type:alpha" maskUnits="userSpaceOnUse" x="10" y="8" width="51" height="51">
<rect id="Rectangle 14_2" x="11.1982" y="8.77917" width="50" height="50" rx="25" transform="rotate(0.5 11.1982 8.77917)" fill="url(#paint3_linear_650_7951)"/>
</mask>
<g mask="url(#mask3_650_7951)">
<path id="Vector 3_2" opacity="0.4" d="M17.6753 22.848C16.2637 25.2148 12.5734 25.3961 10.9046 25.1909C10.2639 24.3847 8.94301 22.6117 8.78497 21.9698C8.62693 21.3279 9.83124 19.2719 10.4531 18.3242C10.8451 16.3832 11.6306 12.3181 11.637 11.5861C11.645 10.6712 17.8201 6.26423 17.83 5.12051C17.838 4.20554 27.4519 4.21318 32.2579 4.33138L46.0462 6.51055C51.5592 11.5533 62.4594 22.6212 57.598 26.5135C51.5212 31.3788 49.9856 7.80048 24.4315 16.0498C20.7501 17.2382 19.4399 19.8896 17.6753 22.848Z" fill="white"/>
<path id="Vector 4_2" d="M19.787 45.9758C18.4169 43.5848 14.7303 43.3391 13.0582 43.5151C12.4035 44.3101 11.0519 46.0597 10.8827 46.6988C10.7134 47.3378 11.8817 49.4145 12.487 50.373C12.845 52.3205 13.5594 56.3987 13.553 57.1307C13.545 58.0456 19.6423 62.5597 19.6323 63.7034C19.6243 64.6184 29.2369 64.7785 34.0442 64.7442L47.8684 62.806C53.4686 57.8603 64.5602 46.9842 59.7675 43.0077C53.7766 38.0371 51.8297 61.585 26.4235 52.891C22.7634 51.6385 21.4996 48.9647 19.787 45.9758Z" fill="#939393"/>
</g>
</g>
<g id="Polygon 2_2" filter="url(#filter4_ii_650_7951)">
<path d="M44.4562 36.6685C46.4662 35.5313 46.4914 32.6447 44.5015 31.4726L34.0548 25.319C32.065 24.1469 29.5525 25.5684 29.5323 27.8777L29.4265 40.0016C29.4064 42.3109 31.8937 43.776 33.9037 42.6388L44.4562 36.6685Z" fill="#797C76"/>
</g>
<ellipse id="Ellipse 2_2" cx="27.0738" cy="15.8383" rx="3.3937" ry="1.53472" transform="rotate(-14 27.0738 15.8383)" fill="white"/>
<ellipse id="Ellipse 3" cx="20.6928" cy="19.6934" rx="1.9408" ry="1" transform="rotate(-43.5 20.6928 19.6934)" fill="white"/>
<ellipse id="Ellipse 4_2" cx="41.9685" cy="53.461" rx="3.3937" ry="1.53472" transform="rotate(-15 41.9685 53.461)" fill="white"/>
</g>
<g id="Rectangle 12_4" filter="url(#filter5_ii_650_7951)">
<rect x="7.23584" y="4.44037" width="58" height="58" rx="29" transform="rotate(0.5 7.23584 4.44037)" fill="white" fill-opacity="0.04"/>
</g>
</g>
</g>
</g>
</g>
</g>
<defs>
<filter id="filter0_d_650_7951" x="2.98169" y="4.59302" width="67.1104" height="66.098" filterUnits="userSpaceOnUse" color-interpolation-filters="sRGB">
<feFlood flood-opacity="0" result="BackgroundImageFix"/>
<feColorMatrix in="SourceAlpha" type="matrix" values="0 0 0 0 0 0 0 0 0 0 0 0 0 0 0 0 0 0 127 0" result="hardAlpha"/>
<feOffset dy="4"/>
<feGaussianBlur stdDeviation="2"/>
<feComposite in2="hardAlpha" operator="out"/>
<feColorMatrix type="matrix" values="0 0 0 0 0 0 0 0 0 0 0 0 0 0 0 0 0 0 0.7 0"/>
<feBlend mode="normal" in2="BackgroundImageFix" result="effect1_dropShadow_650_7951"/>
<feBlend mode="normal" in="SourceGraphic" in2="effect1_dropShadow_650_7951" result="shape"/>
</filter>
<filter id="filter1_ii_650_7951" x="30.592" y="24.8304" width="16.5" height="18.1333" filterUnits="userSpaceOnUse" color-interpolation-filters="sRGB">
<feFlood flood-opacity="0" result="BackgroundImageFix"/>
<feBlend mode="normal" in="SourceGraphic" in2="BackgroundImageFix" result="shape"/>
<feColorMatrix in="SourceAlpha" type="matrix" values="0 0 0 0 0 0 0 0 0 0 0 0 0 0 0 0 0 0 127 0" result="hardAlpha"/>
<feOffset dy="-1.2"/>
<feComposite in2="hardAlpha" operator="arithmetic" k2="-1" k3="1"/>
<feColorMatrix type="matrix" values="0 0 0 0 1 0 0 0 0 1 0 0 0 0 1 0 0 0 1 0"/>
<feBlend mode="normal" in2="shape" result="effect1_innerShadow_650_7951"/>
<feColorMatrix in="SourceAlpha" type="matrix" values="0 0 0 0 0 0 0 0 0 0 0 0 0 0 0 0 0 0 127 0" result="hardAlpha"/>
<feOffset dy="2"/>
<feComposite in2="hardAlpha" operator="arithmetic" k2="-1" k3="1"/>
<feColorMatrix type="matrix" values="0 0 0 0 0.054902 0 0 0 0 0.054902 0 0 0 0 0.054902 0 0 0 1 0"/>
<feBlend mode="normal" in2="effect1_innerShadow_650_7951" result="effect2_innerShadow_650_7951"/>
</filter>
<filter id="filter2_ii_650_7951" x="8.09204" y="2.59302" width="58" height="62" filterUnits="userSpaceOnUse" color-interpolation-filters="sRGB">
<feFlood flood-opacity="0" result="BackgroundImageFix"/>
<feBlend mode="normal" in="SourceGraphic" in2="BackgroundImageFix" result="shape"/>
<feColorMatrix in="SourceAlpha" type="matrix" values="0 0 0 0 0 0 0 0 0 0 0 0 0 0 0 0 0 0 127 0" result="hardAlpha"/>
<feOffset dy="2"/>
<feGaussianBlur stdDeviation="2"/>
<feComposite in2="hardAlpha" operator="arithmetic" k2="-1" k3="1"/>
<feColorMatrix type="matrix" values="0 0 0 0 1 0 0 0 0 1 0 0 0 0 1 0 0 0 0.96 0"/>
<feBlend mode="normal" in2="shape" result="effect1_innerShadow_650_7951"/>
<feColorMatrix in="SourceAlpha" type="matrix" values="0 0 0 0 0 0 0 0 0 0 0 0 0 0 0 0 0 0 127 0" result="hardAlpha"/>
<feOffset dy="-4"/>
<feGaussianBlur stdDeviation="1"/>
<feComposite in2="hardAlpha" operator="arithmetic" k2="-1" k3="1"/>
<feColorMatrix type="matrix" values="0 0 0 0 1 0 0 0 0 1 0 0 0 0 1 0 0 0 0.25 0"/>
<feBlend mode="normal" in2="effect1_innerShadow_650_7951" result="effect2_innerShadow_650_7951"/>
</filter>
<filter id="filter3_d_650_7951" x="0.981689" y="2.69232" width="47.9531" height="69.9987" filterUnits="userSpaceOnUse" color-interpolation-filters="sRGB">
<feFlood flood-opacity="0" result="BackgroundImageFix"/>
<feColorMatrix in="SourceAlpha" type="matrix" values="0 0 0 0 0 0 0 0 0 0 0 0 0 0 0 0 0 0 127 0" result="hardAlpha"/>
<feOffset dy="4"/>
<feGaussianBlur stdDeviation="3"/>
<feComposite in2="hardAlpha" operator="out"/>
<feColorMatrix type="matrix" values="0 0 0 0 0 0 0 0 0 0 0 0 0 0 0 0 0 0 0.8 0"/>
<feBlend mode="normal" in2="BackgroundImageFix" result="effect1_dropShadow_650_7951"/>
<feBlend mode="normal" in="SourceGraphic" in2="effect1_dropShadow_650_7951" result="shape"/>
</filter>
<filter id="filter4_ii_650_7951" x="29.4265" y="24.8994" width="16.5525" height="18.1329" filterUnits="userSpaceOnUse" color-interpolation-filters="sRGB">
<feFlood flood-opacity="0" result="BackgroundImageFix"/>
<feBlend mode="normal" in="SourceGraphic" in2="BackgroundImageFix" result="shape"/>
<feColorMatrix in="SourceAlpha" type="matrix" values="0 0 0 0 0 0 0 0 0 0 0 0 0 0 0 0 0 0 127 0" result="hardAlpha"/>
<feOffset dy="-1.2"/>
<feComposite in2="hardAlpha" operator="arithmetic" k2="-1" k3="1"/>
<feColorMatrix type="matrix" values="0 0 0 0 1 0 0 0 0 1 0 0 0 0 1 0 0 0 1 0"/>
<feBlend mode="normal" in2="shape" result="effect1_innerShadow_650_7951"/>
<feColorMatrix in="SourceAlpha" type="matrix" values="0 0 0 0 0 0 0 0 0 0 0 0 0 0 0 0 0 0 127 0" result="hardAlpha"/>
<feOffset dy="2"/>
<feComposite in2="hardAlpha" operator="arithmetic" k2="-1" k3="1"/>
<feColorMatrix type="matrix" values="0 0 0 0 0.054902 0 0 0 0 0.054902 0 0 0 0 0.054902 0 0 0 1 0"/>
<feBlend mode="normal" in2="effect1_innerShadow_650_7951" result="effect2_innerShadow_650_7951"/>
</filter>
<filter id="filter5_ii_650_7951" x="6.98169" y="2.69232" width="58" height="62" filterUnits="userSpaceOnUse" color-interpolation-filters="sRGB">
<feFlood flood-opacity="0" result="BackgroundImageFix"/>
<feBlend mode="normal" in="SourceGraphic" in2="BackgroundImageFix" result="shape"/>
<feColorMatrix in="SourceAlpha" type="matrix" values="0 0 0 0 0 0 0 0 0 0 0 0 0 0 0 0 0 0 127 0" result="hardAlpha"/>
<feOffset dy="2"/>
<feGaussianBlur stdDeviation="2"/>
<feComposite in2="hardAlpha" operator="arithmetic" k2="-1" k3="1"/>
<feColorMatrix type="matrix" values="0 0 0 0 1 0 0 0 0 1 0 0 0 0 1 0 0 0 0.96 0"/>
<feBlend mode="normal" in2="shape" result="effect1_innerShadow_650_7951"/>
<feColorMatrix in="SourceAlpha" type="matrix" values="0 0 0 0 0 0 0 0 0 0 0 0 0 0 0 0 0 0 127 0" result="hardAlpha"/>
<feOffset dy="-4"/>
<feGaussianBlur stdDeviation="1"/>
<feComposite in2="hardAlpha" operator="arithmetic" k2="-1" k3="1"/>
<feColorMatrix type="matrix" values="0 0 0 0 1 0 0 0 0 1 0 0 0 0 1 0 0 0 0.25 0"/>
<feBlend mode="normal" in2="effect1_innerShadow_650_7951" result="effect2_innerShadow_650_7951"/>
</filter>
<linearGradient id="paint0_linear_650_7951" x1="37.092" y1="8.89709" x2="37.092" y2="58.8971" gradientUnits="userSpaceOnUse">
<stop stop-color="#BDBDBD"/>
<stop offset="1" stop-color="#A9A9A9"/>
</linearGradient>
<linearGradient id="paint1_linear_650_7951" x1="37.092" y1="8.89709" x2="37.092" y2="58.8971" gradientUnits="userSpaceOnUse">
<stop stop-color="#FB9191"/>
<stop offset="1" stop-color="#F47677"/>
</linearGradient>
<linearGradient id="paint2_linear_650_7951" x1="36.1982" y1="8.77917" x2="36.1982" y2="58.7792" gradientUnits="userSpaceOnUse">
<stop stop-color="#BDBDBD"/>
<stop offset="1" stop-color="#A9A9A9"/>
</linearGradient>
<linearGradient id="paint3_linear_650_7951" x1="36.1982" y1="8.77917" x2="36.1982" y2="58.7792" gradientUnits="userSpaceOnUse">
<stop stop-color="#FB9191"/>
<stop offset="1" stop-color="#F47677"/>
</linearGradient>
</defs>
</svg>
